<svg width="21" height="28" viewBox="0 0 21 28" fill="none" xmlns="http://www.w3.org/2000/svg">
<path d="M0 3.46588C0 2.54667 0.368749 1.66511 1.02513 1.01513C1.6815 0.365154 2.57174 0 3.5 0L17.5 0C18.4283 0 19.3185 0.365154 19.9749 1.01513C20.6313 1.66511 21 2.54667 21 3.46588V26.8605C20.9999 27.0173 20.9569 27.171 20.8756 27.3055C20.7942 27.4399 20.6775 27.55 20.538 27.624C20.3985 27.6979 20.2413 27.7331 20.0832 27.7256C19.9251 27.7181 19.772 27.6683 19.6402 27.5814L10.5 22.7032L1.35975 27.5814C1.22798 27.6683 1.0749 27.7181 0.91681 27.7256C0.758717 27.7331 0.601533 27.6979 0.461999 27.624C0.322465 27.55 0.205807 27.4399 0.12445 27.3055C0.0430921 27.171 8.17607e-05 27.0173 0 26.8605V3.46588ZM3.5 1.73294C3.03587 1.73294 2.59075 1.91551 2.26256 2.2405C1.93437 2.56549 1.75 3.00627 1.75 3.46588V25.242L10.0153 20.9408C10.1589 20.8462 10.3275 20.7957 10.5 20.7957C10.6725 20.7957 10.8411 20.8462 10.9848 20.9408L19.25 25.242V3.46588C19.25 3.00627 19.0656 2.56549 18.7374 2.2405C18.4092 1.91551 17.9641 1.73294 17.5 1.73294H3.5Z" fill="black"/>
</svg>
