<svg width="22" height="28" viewBox="0 0 22 28" fill="none" xmlns="http://www.w3.org/2000/svg">
<path d="M2.45426e-07 3.49992V27.1244C-0.000116222 27.2763 0.0412216 27.4257 0.119945 27.5577C0.198668 27.6898 0.312064 27.8 0.448968 27.8775C0.585873 27.9551 0.741567 27.9972 0.900726 27.9999C1.05988 28.0025 1.21702 27.9655 1.35667 27.8926L11 22.8702L20.6433 27.8926C20.783 27.9655 20.9401 28.0025 21.0993 27.9999C21.2584 27.9972 21.4141 27.9551 21.551 27.8775C21.6879 27.8 21.8013 27.6898 21.8801 27.5577C21.9588 27.4257 22.0001 27.2763 22 27.1244V3.49992C22 2.57168 21.6137 1.68147 20.9261 1.0251C20.2384 0.368741 19.3058 0 18.3333 0L3.66667 0C2.69421 0 1.76158 0.368741 1.07394 1.0251C0.386308 1.68147 2.45426e-07 2.57168 2.45426e-07 3.49992V3.49992Z" fill="black"/>
</svg>
