<svg width="23" height="24" viewBox="0 0 23 24" fill="none" xmlns="http://www.w3.org/2000/svg">
<path d="M11.2047 8.26688e-09C12.1886 -6.44109e-05 13.1352 0.37636 13.8503 1.05206C14.5655 1.72775 14.9949 2.65149 15.0506 3.63378L15.0566 3.85185H21.2788C21.504 3.85192 21.7208 3.93747 21.8854 4.09123C22.0499 4.24498 22.15 4.45547 22.1653 4.68015C22.1807 4.90484 22.1102 5.12698 21.9681 5.30169C21.8259 5.47639 21.6228 5.59064 21.3997 5.62133L21.2788 5.62963H20.3354L18.8184 21.0607C18.7423 21.8301 18.3954 22.5473 17.8394 23.0844C17.2834 23.6215 16.5546 23.9435 15.7831 23.9929L15.5745 24H6.83494C6.06157 24 5.31339 23.7249 4.72414 23.2241C4.13488 22.7232 3.74294 22.0291 3.61835 21.2658L3.59109 21.0596L2.07287 5.62963H1.13065C0.915849 5.62962 0.708318 5.55183 0.546435 5.41065C0.384552 5.26946 0.279269 5.07443 0.250057 4.86163L0.24176 4.74074C0.241769 4.52594 0.319559 4.31841 0.460743 4.15653C0.601928 3.99464 0.796956 3.88936 1.00976 3.86015L1.13065 3.85185H7.35287C7.35287 2.83028 7.75869 1.85054 8.48105 1.12818C9.20341 0.405819 10.1831 8.26689e-09 11.2047 8.26688e-09V8.26688e-09ZM18.5493 5.62963H3.85895L5.36057 20.8853C5.39383 21.2257 5.54383 21.5441 5.78514 21.7865C6.02644 22.0289 6.34418 22.1803 6.68443 22.2151L6.83494 22.2222H15.5745C16.2856 22.2222 16.8889 21.7185 17.0264 21.0347L17.0501 20.8853L18.5481 5.62963H18.5493ZM13.2788 8.88889C13.4936 8.8889 13.7011 8.96669 13.863 9.10787C14.0249 9.24906 14.1302 9.44408 14.1594 9.65689L14.1677 9.77778V18.0741C14.1676 18.2993 14.0821 18.5161 13.9283 18.6806C13.7746 18.8452 13.5641 18.9453 13.3394 18.9606C13.1147 18.976 12.8926 18.9055 12.7178 18.7633C12.5431 18.6212 12.4289 18.4181 12.3982 18.195L12.3899 18.0741V9.77778C12.3899 9.54203 12.4836 9.31594 12.6503 9.14924C12.817 8.98254 13.043 8.88889 13.2788 8.88889ZM9.13065 8.88889C9.34545 8.8889 9.55298 8.96669 9.71486 9.10787C9.87674 9.24906 9.98203 9.44408 10.0112 9.65689L10.0195 9.77778V18.0741C10.0195 18.2993 9.93391 18.5161 9.78016 18.6806C9.62641 18.8452 9.41592 18.9453 9.19123 18.9606C8.96655 18.976 8.74441 18.9055 8.5697 18.7633C8.395 18.6212 8.28075 18.4181 8.25006 18.195L8.24176 18.0741V9.77778C8.24176 9.54203 8.33541 9.31594 8.50211 9.14924C8.66881 8.98254 8.8949 8.88889 9.13065 8.88889ZM11.2047 1.77778C10.6842 1.7778 10.1827 1.97354 9.79981 2.32614C9.41691 2.67874 9.18059 3.16243 9.13776 3.68119L9.13065 3.85185H13.2788C13.2788 3.30177 13.0603 2.77422 12.6713 2.38526C12.2824 1.9963 11.7548 1.77778 11.2047 1.77778Z" fill="black"/>
</svg>
